<svg width="45" height="40" viewBox="0 0 45 40" fill="none" xmlns="http://www.w3.org/2000/svg">
<path d="M18.3359 3.33594L15.3906 4.4375C15.1562 4.52344 15 4.75 15 5C15 5.25 15.1562 5.47656 15.3906 5.5625L18.3359 6.66406L19.4375 9.60938C19.5234 9.84375 19.75 10 20 10C20.25 10 20.4766 9.84375 20.5625 9.60938L21.6641 6.66406L24.6094 5.5625C24.8438 5.47656 25 5.25 25 5C25 4.75 24.8438 4.52344 24.6094 4.4375L21.6641 3.33594L20.5625 0.390625C20.4766 0.15625 20.25 0 20 0C19.75 0 19.5234 0.15625 19.4375 0.390625L18.3359 3.33594ZM3.60156 30.8906C2.14062 32.3516 2.14062 34.7266 3.60156 36.1953L6.30469 38.8984C7.76562 40.3594 10.1406 40.3594 11.6094 38.8984L41.3984 9.10156C42.8594 7.64062 42.8594 5.26562 41.3984 3.79688L38.6953 1.10156C37.2344 -0.359375 34.8594 -0.359375 33.3906 1.10156L3.60156 30.8906ZM37.8594 6.45312L29.6562 14.6562L27.8359 12.8359L36.0391 4.63281L37.8594 6.45312ZM0.585938 9.15625C0.234375 9.28906 0 9.625 0 10C0 10.375 0.234375 10.7109 0.585938 10.8438L5 12.5L6.65625 16.9141C6.78906 17.2656 7.125 17.5 7.5 17.5C7.875 17.5 8.21094 17.2656 8.34375 16.9141L10 12.5L14.4141 10.8438C14.7656 10.7109 15 10.375 15 10C15 9.625 14.7656 9.28906 14.4141 9.15625L10 7.5L8.34375 3.08594C8.21094 2.73438 7.875 2.5 7.5 2.5C7.125 2.5 6.78906 2.73438 6.65625 3.08594L5 7.5L0.585938 9.15625ZM28.0859 29.1562C27.7344 29.2891 27.5 29.625 27.5 30C27.5 30.375 27.7344 30.7109 28.0859 30.8438L32.5 32.5L34.1562 36.9141C34.2891 37.2656 34.625 37.5 35 37.5C35.375 37.5 35.7109 37.2656 35.8438 36.9141L37.5 32.5L41.9141 30.8438C42.2656 30.7109 42.5 30.375 42.5 30C42.5 29.625 42.2656 29.2891 41.9141 29.1562L37.5 27.5L35.8438 23.0859C35.7109 22.7344 35.375 22.5 35 22.5C34.625 22.5 34.2891 22.7344 34.1562 23.0859L32.5 27.5L28.0859 29.1562Z" fill="black"/>
</svg>
