<svg width="42" height="42" viewBox="0 0 42 42" fill="none" xmlns="http://www.w3.org/2000/svg">
<g clip-path="url(#clip0_21_30)">
<path d="M18.375 0C15.4793 0 13.125 2.33209 13.125 5.20047V23.4021C13.125 26.2705 15.4793 28.6026 18.375 28.6026H36.75C39.6457 28.6026 42 26.2705 42 23.4021V5.20047C42 2.33209 39.6457 0 36.75 0H18.375ZM5.25 13.0012C2.3543 13.0012 0 15.3333 0 18.2017V36.4033C0 39.2717 2.3543 41.6038 5.25 41.6038H23.625C26.5207 41.6038 28.875 39.2717 28.875 36.4033V31.2028H23.625V36.4033H5.25V18.2017H10.5V13.0012H5.25Z" fill="black"/>
</g>
<defs>
<clipPath id="clip0_21_30">
<rect width="42" height="41.6038" fill="white"/>
</clipPath>
</defs>
</svg>
