<svg width="42" height="42" viewBox="0 0 42 42" fill="none" xmlns="http://www.w3.org/2000/svg">
<path d="M4.30664 35.802C3.52734 36.444 2.43633 36.5902 1.50937 36.1596C0.582422 35.7289 0 34.8107 0 33.8031V7.80073C0 6.79314 0.590625 5.87493 1.50937 5.44427C2.42812 5.0136 3.51914 5.15174 4.30664 5.8018L18.375 17.4135V20.8019V24.1903L4.30664 35.802ZM21 28.6026V20.8019V10.401V7.80073C21 6.79314 21.5906 5.87493 22.5094 5.44427C23.4281 5.0136 24.5191 5.15174 25.3066 5.8018L41.0566 18.803C41.6555 19.2986 42 20.03 42 20.8019C42 21.5739 41.6555 22.3052 41.0566 22.8008L25.3066 35.802C24.5273 36.444 23.4363 36.5902 22.5094 36.1596C21.5824 35.7289 21 34.8107 21 33.8031V28.6026Z" fill="black"/>
</svg>
