<svg width="41" height="42" viewBox="0 0 41 42" fill="none" xmlns="http://www.w3.org/2000/svg">
<g clip-path="url(#clip0_21_44)">
<path d="M18.5781 9.70177C18.5781 8.62649 19.435 7.76142 20.5 7.76142C21.565 7.76142 22.4219 8.62649 22.4219 9.70177V19.6623L29.2525 24.2544C30.1334 24.8527 30.3736 26.0573 29.717 26.9467C29.1965 27.836 28.0033 28.0785 27.1225 27.4156L19.435 22.2413C18.8984 21.9503 18.5781 21.3439 18.5781 20.6244V9.70177ZM20.5 0C31.823 0 41 9.26519 41 20.6971C41 32.129 31.823 41.3942 20.5 41.3942C9.17695 41.3942 0 32.129 0 20.6971C0 9.26519 9.17695 0 20.5 0ZM3.84375 20.6971C3.84375 29.9866 11.299 37.5135 20.5 37.5135C29.701 37.5135 37.1562 29.9866 37.1562 20.6971C37.1562 11.4077 29.701 3.88071 20.5 3.88071C11.299 3.88071 3.84375 11.4077 3.84375 20.6971Z" fill="black"/>
</g>
<defs>
<clipPath id="clip0_21_44">
<rect width="41" height="41.3942" fill="white"/>
</clipPath>
</defs>
</svg>
