<svg width="47" height="44" viewBox="0 0 47 44" fill="none" xmlns="http://www.w3.org/2000/svg">
<g clip-path="url(#clip0_21_34)">
<path d="M33.7405 20.254C31.4394 20.6633 28.9915 19.947 27.2127 18.0879L24.1038 14.8387C22.8799 13.5595 22.1944 11.8369 22.1944 10.0289V8.99704L15.6911 5.28736C15.2587 5.04005 14.9894 4.55395 15.0139 4.03374C15.0384 3.51354 15.3321 3.05302 15.7891 2.83982L19.6405 1.04894C21.1418 0.358176 22.7656 0 24.4139 0H25.8908C28.8854 0 31.7658 1.19392 33.9444 3.33445L37.5837 6.91621C39.5583 8.86059 40.2927 11.6663 39.7542 14.2503L41.0434 15.6062L41.6962 14.924C42.4632 14.1224 43.7035 14.1224 44.4623 14.924L46.4207 16.9707C47.1877 17.7724 47.1877 19.0686 46.4207 19.8617L39.2401 27.3664C38.4731 28.168 37.2328 28.168 36.474 27.3664L34.5156 25.3196C33.7486 24.518 33.7486 23.2217 34.5156 22.4286L35.1684 21.7464L33.7405 20.254ZM2.23576 32.1591L21.2887 15.5721C21.5743 15.99 21.9007 16.3908 22.2516 16.7661L25.3604 20.0152C25.85 20.5269 26.3722 20.9704 26.9271 21.3541L11.0075 41.3267C9.82431 42.8106 8.06997 43.6634 6.22587 43.6634C2.78247 43.6634 0 40.7468 0 37.1565C0 35.2292 0.824132 33.3957 2.23576 32.1591Z" fill="black"/>
</g>
<defs>
<clipPath id="clip0_21_34">
<rect width="47" height="43.6634" fill="white"/>
</clipPath>
</defs>
</svg>
