<svg width="253" height="202" viewBox="0 0 253 202" fill="none" xmlns="http://www.w3.org/2000/svg">
<g clip-path="url(#clip0_21_57)">
<path d="M126.5 0C133.497 0 139.15 5.6418 139.15 12.625V94.6875C139.15 98.1594 141.996 101 145.475 101C148.954 101 151.8 98.1594 151.8 94.6875V25.25C151.8 18.2668 157.453 12.625 164.45 12.625C171.447 12.625 177.1 18.2668 177.1 25.25V94.6875C177.1 98.1594 179.946 101 183.425 101C186.904 101 189.75 98.1594 189.75 94.6875V50.5C189.75 43.5168 195.403 37.875 202.4 37.875C209.397 37.875 215.05 43.5168 215.05 50.5V127.473C210.346 129.367 206.63 133.352 205.167 138.441L201.649 150.75L189.315 154.262C182.081 156.353 177.1 162.941 177.1 170.438C177.1 177.894 182.041 184.483 189.197 186.574C177.258 196.24 162.039 202 145.475 202H137.885C114.324 202 91.673 192.965 74.635 176.75L30.2019 134.535C23.8769 128.538 23.6397 118.517 29.6484 112.205C35.6572 105.892 45.6981 105.655 52.0231 111.652L75.9395 134.377C75.9395 133.786 75.9 133.154 75.9 132.562V25.25C75.9 18.2668 81.553 12.625 88.55 12.625C95.547 12.625 101.2 18.2668 101.2 25.25V94.6875C101.2 98.1594 104.046 101 107.525 101C111.004 101 113.85 98.1594 113.85 94.6875V12.625C113.85 5.6418 119.503 0 126.5 0ZM123.614 128.854C123.179 127.315 121.756 126.25 120.175 126.25C118.594 126.25 117.171 127.315 116.736 128.854L113.85 138.875L103.809 141.755C102.267 142.189 101.2 143.609 101.2 145.188C101.2 146.766 102.267 148.186 103.809 148.62L113.85 151.5L116.736 161.521C117.171 163.06 118.594 164.125 120.175 164.125C121.756 164.125 123.179 163.06 123.614 161.521L126.5 151.5L136.541 148.62C138.083 148.186 139.15 146.766 139.15 145.188C139.15 143.609 138.083 142.189 136.541 141.755L126.5 138.875L123.614 128.854ZM41.1125 47.3438L60.2061 52.7883C62.0245 53.3012 63.25 54.9582 63.25 56.8125C63.25 58.6668 62.0245 60.3238 60.2061 60.8367L41.1125 66.2812L35.6572 85.3371C35.1433 87.152 33.483 88.375 31.625 88.375C29.767 88.375 28.1067 87.152 27.5928 85.3371L22.1375 66.2812L3.04391 60.8367C1.22547 60.3238 0 58.6668 0 56.8125C0 54.9582 1.22547 53.3012 3.04391 52.7883L22.1375 47.3438L27.5928 28.2879C28.1067 26.473 29.767 25.25 31.625 25.25C33.483 25.25 35.1433 26.473 35.6572 28.2879L41.1125 47.3438ZM230.862 160.969L249.956 166.413C251.775 166.926 253 168.583 253 170.438C253 172.292 251.775 173.949 249.956 174.462L230.862 179.906L225.407 198.962C224.893 200.777 223.233 202 221.375 202C219.517 202 217.857 200.777 217.343 198.962L211.887 179.906L192.794 174.462C190.975 173.949 189.75 172.292 189.75 170.438C189.75 168.583 190.975 166.926 192.794 166.413L211.887 160.969L217.343 141.913C217.857 140.098 219.517 138.875 221.375 138.875C223.233 138.875 224.893 140.098 225.407 141.913L230.862 160.969Z" fill="#212121"/>
</g>
<defs>
<clipPath id="clip0_21_57">
<rect width="253" height="202" fill="white"/>
</clipPath>
</defs>
</svg>
