<svg width="275" height="25" viewBox="0 0 275 25" fill="none" xmlns="http://www.w3.org/2000/svg">
<path d="M7.37463 1.152C9.40129 1.152 11.0973 1.344 12.4626 1.728C13.8493 2.09067 14.884 2.69867 15.5666 3.552C16.2706 4.384 16.6226 5.51467 16.6226 6.944C16.6226 7.79733 16.484 8.576 16.2066 9.28C15.9293 9.984 15.524 10.56 14.9906 11.008C14.4786 11.456 13.8493 11.744 13.1026 11.872V12.032C13.8706 12.1813 14.564 12.448 15.1826 12.832C15.8013 13.216 16.292 13.7707 16.6546 14.496C17.0173 15.2213 17.1986 16.1813 17.1986 17.376C17.1986 18.7627 16.8573 19.9573 16.1746 20.96C15.5133 21.9413 14.5533 22.6987 13.2946 23.232C12.036 23.744 10.5426 24 8.81463 24H0.270625V1.152H7.37463ZM7.91863 10.208C9.32663 10.208 10.2973 9.984 10.8306 9.536C11.3853 9.088 11.6626 8.43733 11.6626 7.584C11.6626 6.70933 11.3426 6.08 10.7026 5.696C10.0626 5.312 9.04929 5.12 7.66263 5.12H5.10263V10.208H7.91863ZM5.10263 14.048V20H8.27063C9.72129 20 10.7346 19.7227 11.3106 19.168C11.8866 18.592 12.1746 17.8347 12.1746 16.896C12.1746 16.32 12.0466 15.8187 11.7906 15.392C11.556 14.9653 11.14 14.6347 10.5426 14.4C9.94529 14.1653 9.13463 14.048 8.11063 14.048H5.10263ZM28.4266 1.152C30.496 1.152 32.2026 1.408 33.5466 1.92C34.8906 2.41066 35.8933 3.168 36.5546 4.192C37.216 5.19467 37.5466 6.464 37.5466 8C37.5466 9.04533 37.344 9.96267 36.9386 10.752C36.5546 11.52 36.032 12.1813 35.3706 12.736C34.7306 13.2693 34.0373 13.7067 33.2906 14.048L40.0106 24H34.6346L29.1946 15.232H26.6026V24H21.7706V1.152H28.4266ZM28.0746 5.12H26.6026V11.296H28.1706C29.2373 11.296 30.1013 11.1787 30.7626 10.944C31.424 10.7093 31.904 10.3573 32.2026 9.888C32.5013 9.39733 32.6506 8.81067 32.6506 8.128C32.6506 7.40267 32.48 6.82667 32.1386 6.4C31.8186 5.952 31.3173 5.632 30.6346 5.44C29.9733 5.22667 29.12 5.12 28.0746 5.12ZM56.8796 24L55.2156 18.56H46.8956L45.2316 24H40.0156L48.0796 1.056H53.9996L62.0956 24H56.8796ZM52.3996 9.184C52.293 8.82133 52.1543 8.36267 51.9836 7.808C51.813 7.25333 51.6423 6.688 51.4716 6.112C51.301 5.536 51.1623 5.03467 51.0556 4.608C50.949 5.03467 50.7996 5.568 50.6076 6.208C50.437 6.82667 50.2663 7.424 50.0956 8C49.9463 8.55467 49.829 8.94933 49.7436 9.184L48.1116 14.496H54.0636L52.3996 9.184ZM79.8694 24H62.8774V20.864L73.8214 5.152H63.1654V1.152H79.5814V4.288L68.6374 20H79.8694V24ZM92.0646 24H81.6646V21.248L84.4486 19.968V5.184L81.6646 3.904V1.152H92.0646V3.904L89.2806 5.184V19.968L92.0646 21.248V24ZM95.9581 24V1.152H100.79V20H110.07V24H95.9581ZM136.348 24L134.684 18.56H126.364L124.7 24H119.484L127.548 1.056H133.468L141.564 24H136.348ZM131.868 9.184C131.762 8.82133 131.623 8.36267 131.452 7.808C131.282 7.25333 131.111 6.688 130.94 6.112C130.77 5.536 130.631 5.03467 130.524 4.608C130.418 5.03467 130.268 5.568 130.076 6.208C129.906 6.82667 129.735 7.424 129.564 8C129.415 8.55467 129.298 8.94933 129.212 9.184L127.58 14.496H133.532L131.868 9.184ZM144.458 24V1.152H149.29V20H158.57V24H144.458ZM162.552 24V1.152H167.384V20H176.664V24H162.552ZM189.19 24H178.79V21.248L181.574 19.968V5.184L178.79 3.904V1.152H189.19V3.904L186.406 5.184V19.968L189.19 21.248V24ZM207.067 24L205.403 18.56H197.083L195.419 24H190.203L198.267 1.056H204.187L212.283 24H207.067ZM202.587 9.184C202.48 8.82133 202.342 8.36267 202.171 7.808C202 7.25333 201.83 6.688 201.659 6.112C201.488 5.536 201.35 5.03467 201.243 4.608C201.136 5.03467 200.987 5.568 200.795 6.208C200.624 6.82667 200.454 7.424 200.283 8C200.134 8.55467 200.016 8.94933 199.931 9.184L198.299 14.496H204.251L202.587 9.184ZM235.433 24H229.289L219.337 6.72H219.209C219.23 7.25333 219.252 7.79733 219.273 8.352C219.294 8.88533 219.316 9.42933 219.337 9.984C219.38 10.5173 219.412 11.0613 219.433 11.616C219.454 12.1493 219.476 12.6933 219.497 13.248V24H215.177V1.152H221.289L231.209 18.272H231.305C231.284 17.7387 231.262 17.216 231.241 16.704C231.22 16.1707 231.198 15.648 231.177 15.136C231.177 14.6027 231.166 14.08 231.145 13.568C231.124 13.0347 231.102 12.5013 231.081 11.968V1.152H235.433V24ZM250.904 4.864C249.987 4.864 249.165 5.04533 248.44 5.408C247.736 5.77067 247.139 6.29333 246.648 6.976C246.157 7.63733 245.784 8.448 245.528 9.408C245.293 10.368 245.176 11.4453 245.176 12.64C245.176 14.2613 245.368 15.648 245.752 16.8C246.157 17.9307 246.787 18.7947 247.64 19.392C248.493 19.9893 249.581 20.288 250.904 20.288C251.843 20.288 252.771 20.1813 253.688 19.968C254.627 19.7547 255.64 19.456 256.728 19.072V23.136C255.725 23.5413 254.733 23.84 253.752 24.032C252.771 24.224 251.672 24.32 250.456 24.32C248.109 24.32 246.168 23.84 244.632 22.88C243.117 21.8987 241.997 20.5333 241.272 18.784C240.547 17.0133 240.184 14.9547 240.184 12.608C240.184 10.88 240.419 9.30133 240.888 7.872C241.357 6.42133 242.04 5.17333 242.936 4.128C243.853 3.08267 244.973 2.272 246.296 1.696C247.64 1.12 249.176 0.831999 250.904 0.831999C252.035 0.831999 253.165 0.981332 254.296 1.28C255.448 1.55733 256.547 1.94133 257.592 2.432L256.024 6.368C255.171 5.96267 254.307 5.61067 253.432 5.312C252.579 5.01333 251.736 4.864 250.904 4.864ZM274.735 24H261.583V1.152H274.735V5.12H266.415V10.144H274.159V14.112H266.415V20H274.735V24Z" fill="url(#paint0_linear_21_8)"/>
<defs>
<linearGradient id="paint0_linear_21_8" x1="65.5" y1="15" x2="220" y2="15" gradientUnits="userSpaceOnUse">
<stop stop-color="#9EE700"/>
<stop offset="1" stop-color="#00ABE1"/>
</linearGradient>
</defs>
</svg>
